<svg width="417" height="410" viewBox="0 0 417 410" fill="none" xmlns="http://www.w3.org/2000/svg">
<rect width="417" height="410" rx="28" fill="#F4F6FB"/>
<path d="M208.5 82.5C185.625 82.5 167.25 101.125 167.25 124C167.25 153.75 208.5 197.5 208.5 197.5C208.5 197.5 249.75 153.75 249.75 124C249.75 101.125 231.375 82.5 208.5 82.5Z" fill="#16308C"/>
<circle cx="238.5" cy="100" r="15" fill="white"/>
<circle cx="238.5" cy="100" r="8.125" fill="#14B89A"/>
<path d="M198.406 107.477V134.75H191.814V107.477H198.406ZM224.505 107.477V134.75H218.912L208.059 119.01H207.886V134.75H201.294V107.477H206.967L217.7 123.191H217.927V107.477H224.505Z" fill="white"/>
<path d="M132.151 235.273V276H123.54V235.273H132.151ZM146.428 258.341V276H137.956V245.455H146.03V250.844H146.388C147.064 249.067 148.197 247.662 149.788 246.628C151.379 245.58 153.308 245.057 155.575 245.057C157.697 245.057 159.546 245.521 161.124 246.449C162.701 247.377 163.928 248.703 164.803 250.426C165.678 252.136 166.115 254.178 166.115 256.551V276H157.643V258.062C157.657 256.193 157.179 254.735 156.212 253.688C155.244 252.627 153.911 252.097 152.215 252.097C151.074 252.097 150.067 252.342 149.192 252.832C148.33 253.323 147.654 254.039 147.163 254.98C146.686 255.908 146.441 257.028 146.428 258.341Z" fill="#2B59E0"/>
<path d="M171.831 276V235.273H198.797V242.372H180.442V252.077H197.007V259.176H180.442V276H171.831ZM203.31 276V245.455H211.781V276H203.31ZM207.565 241.517C206.306 241.517 205.225 241.099 204.324 240.264C203.436 239.416 202.992 238.402 202.992 237.222C202.992 236.055 203.436 235.054 204.324 234.219C205.225 233.37 206.306 232.946 207.565 232.946C208.825 232.946 209.899 233.37 210.787 234.219C211.689 235.054 212.139 236.055 212.139 237.222C212.139 238.402 211.689 239.416 210.787 240.264C209.899 241.099 208.825 241.517 207.565 241.517ZM231.368 276.597C228.226 276.597 225.521 275.96 223.254 274.688C221.001 273.402 219.264 271.585 218.044 269.239C216.824 266.879 216.215 264.088 216.215 260.866C216.215 257.724 216.824 254.967 218.044 252.594C219.264 250.221 220.981 248.371 223.195 247.045C225.422 245.72 228.034 245.057 231.03 245.057C233.045 245.057 234.921 245.382 236.658 246.031C238.408 246.668 239.932 247.629 241.232 248.915C242.544 250.201 243.565 251.818 244.294 253.767C245.023 255.703 245.388 257.97 245.388 260.568V262.895H219.595V257.645H237.413C237.413 256.425 237.148 255.345 236.618 254.403C236.088 253.462 235.352 252.726 234.411 252.196C233.483 251.652 232.402 251.381 231.169 251.381C229.883 251.381 228.743 251.679 227.749 252.276C226.768 252.859 225.999 253.648 225.442 254.642C224.885 255.623 224.6 256.717 224.587 257.923V262.915C224.587 264.426 224.865 265.732 225.422 266.832C225.992 267.933 226.794 268.781 227.828 269.378C228.862 269.974 230.089 270.273 231.507 270.273C232.449 270.273 233.31 270.14 234.092 269.875C234.875 269.61 235.544 269.212 236.101 268.682C236.658 268.152 237.082 267.502 237.374 266.733L245.209 267.25C244.811 269.133 243.996 270.777 242.763 272.182C241.543 273.574 239.966 274.661 238.03 275.443C236.108 276.212 233.887 276.597 231.368 276.597ZM258.268 235.273V276H249.796V235.273H258.268ZM275.19 276.497C272.87 276.497 270.768 275.901 268.886 274.707C267.017 273.501 265.532 271.731 264.431 269.398C263.344 267.051 262.801 264.174 262.801 260.767C262.801 257.267 263.364 254.357 264.491 252.037C265.618 249.704 267.116 247.96 268.985 246.807C270.868 245.64 272.929 245.057 275.17 245.057C276.88 245.057 278.305 245.348 279.445 245.932C280.599 246.502 281.527 247.218 282.23 248.08C282.945 248.928 283.489 249.763 283.86 250.585H284.119V235.273H292.57V276H284.218V271.108H283.86C283.463 271.956 282.899 272.798 282.17 273.634C281.454 274.455 280.519 275.138 279.366 275.682C278.226 276.225 276.834 276.497 275.19 276.497ZM277.874 269.756C279.24 269.756 280.393 269.384 281.335 268.642C282.289 267.886 283.018 266.832 283.522 265.48C284.039 264.128 284.298 262.544 284.298 260.727C284.298 258.911 284.046 257.333 283.542 255.994C283.038 254.655 282.309 253.621 281.355 252.892C280.4 252.163 279.24 251.798 277.874 251.798C276.482 251.798 275.309 252.176 274.355 252.932C273.4 253.687 272.677 254.735 272.187 256.074C271.696 257.413 271.451 258.964 271.451 260.727C271.451 262.504 271.696 264.075 272.187 265.44C272.691 266.793 273.413 267.853 274.355 268.622C275.309 269.378 276.482 269.756 277.874 269.756Z" fill="#14213D"/>
<path d="M143.576 326V315.091H147.752C148.54 315.091 149.196 315.215 149.718 315.464C150.243 315.709 150.636 316.044 150.895 316.471C151.158 316.897 151.289 317.38 151.289 317.919C151.289 318.363 151.204 318.743 151.033 319.059C150.863 319.372 150.634 319.626 150.346 319.821C150.059 320.016 149.737 320.157 149.382 320.242V320.348C149.769 320.37 150.14 320.489 150.495 320.705C150.854 320.918 151.147 321.22 151.374 321.611C151.602 322.001 151.715 322.474 151.715 323.028C151.715 323.592 151.578 324.1 151.305 324.551C151.032 324.999 150.62 325.352 150.069 325.611C149.519 325.87 148.826 326 147.992 326H143.576ZM145.552 324.349H147.678C148.395 324.349 148.912 324.212 149.228 323.939C149.547 323.662 149.707 323.306 149.707 322.873C149.707 322.55 149.627 322.259 149.467 322C149.308 321.737 149.08 321.531 148.786 321.382C148.491 321.229 148.139 321.153 147.731 321.153H145.552V324.349ZM145.552 319.73H147.507C147.848 319.73 148.155 319.668 148.429 319.544C148.702 319.416 148.917 319.237 149.073 319.006C149.233 318.772 149.313 318.495 149.313 318.175C149.313 317.752 149.164 317.404 148.865 317.131C148.571 316.858 148.132 316.721 147.55 316.721H145.552V319.73ZM154.789 315.091H157.021L159.689 319.917H159.796L162.464 315.091H164.696L160.728 321.93V326H158.757V321.93L154.789 315.091ZM175.476 315.091L178.315 323.678H178.427L181.261 315.091H183.434L179.588 326H177.149L173.308 315.091H175.476ZM190.657 326.149C189.947 326.149 189.311 326.016 188.75 325.75C188.189 325.48 187.743 325.11 187.413 324.642C187.087 324.173 186.913 323.637 186.891 323.033H188.809C188.844 323.48 189.038 323.846 189.389 324.13C189.741 324.411 190.164 324.551 190.657 324.551C191.044 324.551 191.389 324.462 191.691 324.285C191.992 324.107 192.23 323.86 192.404 323.544C192.578 323.228 192.664 322.868 192.66 322.463C192.664 322.051 192.577 321.685 192.399 321.366C192.221 321.046 191.978 320.796 191.669 320.615C191.36 320.43 191.005 320.338 190.604 320.338C190.277 320.334 189.956 320.395 189.64 320.519C189.324 320.643 189.073 320.806 188.889 321.009L187.104 320.716L187.674 315.091H194.002V316.742H189.31L188.995 319.635H189.059C189.262 319.397 189.547 319.2 189.917 319.043C190.286 318.884 190.691 318.804 191.131 318.804C191.792 318.804 192.381 318.96 192.9 319.272C193.418 319.581 193.827 320.007 194.125 320.551C194.423 321.094 194.572 321.716 194.572 322.415C194.572 323.136 194.405 323.779 194.072 324.343C193.741 324.904 193.281 325.347 192.692 325.67C192.106 325.989 191.428 326.149 190.657 326.149ZM211.692 318.575C211.603 318.287 211.481 318.029 211.325 317.802C211.172 317.571 210.987 317.374 210.771 317.211C210.558 317.048 210.313 316.925 210.036 316.843C209.759 316.758 209.457 316.716 209.13 316.716C208.544 316.716 208.022 316.863 207.564 317.158C207.106 317.452 206.746 317.886 206.483 318.457C206.223 319.026 206.094 319.718 206.094 320.535C206.094 321.359 206.223 322.056 206.483 322.628C206.742 323.2 207.102 323.635 207.564 323.933C208.026 324.228 208.562 324.375 209.173 324.375C209.727 324.375 210.206 324.269 210.611 324.056C211.019 323.843 211.334 323.541 211.554 323.15C211.774 322.756 211.884 322.294 211.884 321.765L212.331 321.835H209.37V320.29H213.796V321.6C213.796 322.534 213.597 323.342 213.2 324.024C212.802 324.706 212.255 325.231 211.559 325.6C210.863 325.966 210.064 326.149 209.162 326.149C208.157 326.149 207.275 325.924 206.515 325.473C205.758 325.018 205.167 324.374 204.741 323.539C204.318 322.701 204.107 321.707 204.107 320.556C204.107 319.675 204.231 318.889 204.48 318.196C204.732 317.504 205.084 316.916 205.535 316.433C205.986 315.947 206.515 315.577 207.122 315.325C207.729 315.07 208.39 314.942 209.103 314.942C209.707 314.942 210.27 315.031 210.792 315.208C211.314 315.382 211.777 315.631 212.182 315.954C212.591 316.277 212.926 316.661 213.189 317.104C213.452 317.548 213.624 318.038 213.706 318.575H211.692ZM217.807 326V315.091H219.783V324.343H224.588V326H217.807ZM237.726 320.545C237.726 321.721 237.506 322.728 237.066 323.566C236.629 324.4 236.033 325.039 235.276 325.483C234.523 325.927 233.669 326.149 232.714 326.149C231.759 326.149 230.903 325.927 230.147 325.483C229.394 325.036 228.797 324.395 228.357 323.56C227.92 322.722 227.702 321.717 227.702 320.545C227.702 319.37 227.92 318.365 228.357 317.531C228.797 316.692 229.394 316.051 230.147 315.608C230.903 315.164 231.759 314.942 232.714 314.942C233.669 314.942 234.523 315.164 235.276 315.608C236.033 316.051 236.629 316.692 237.066 317.531C237.506 318.365 237.726 319.37 237.726 320.545ZM235.74 320.545C235.74 319.718 235.61 319.02 235.351 318.452C235.095 317.88 234.74 317.449 234.285 317.158C233.831 316.863 233.307 316.716 232.714 316.716C232.121 316.716 231.597 316.863 231.143 317.158C230.688 317.449 230.331 317.88 230.072 318.452C229.816 319.02 229.688 319.718 229.688 320.545C229.688 321.373 229.816 322.072 230.072 322.644C230.331 323.212 230.688 323.644 231.143 323.939C231.597 324.23 232.121 324.375 232.714 324.375C233.307 324.375 233.831 324.23 234.285 323.939C234.74 323.644 235.095 323.212 235.351 322.644C235.61 322.072 235.74 321.373 235.74 320.545ZM241.695 326V315.091H245.871C246.659 315.091 247.314 315.215 247.836 315.464C248.362 315.709 248.754 316.044 249.014 316.471C249.276 316.897 249.408 317.38 249.408 317.919C249.408 318.363 249.323 318.743 249.152 319.059C248.982 319.372 248.753 319.626 248.465 319.821C248.177 320.016 247.856 320.157 247.501 320.242V320.348C247.888 320.37 248.259 320.489 248.614 320.705C248.973 320.918 249.266 321.22 249.493 321.611C249.72 322.001 249.834 322.474 249.834 323.028C249.834 323.592 249.697 324.1 249.424 324.551C249.15 324.999 248.738 325.352 248.188 325.611C247.638 325.87 246.945 326 246.111 326H241.695ZM243.671 324.349H245.796C246.514 324.349 247.03 324.212 247.346 323.939C247.666 323.662 247.826 323.306 247.826 322.873C247.826 322.55 247.746 322.259 247.586 322C247.426 321.737 247.199 321.531 246.904 321.382C246.61 321.229 246.258 321.153 245.85 321.153H243.671V324.349ZM243.671 319.73H245.626C245.967 319.73 246.274 319.668 246.547 319.544C246.821 319.416 247.036 319.237 247.192 319.006C247.352 318.772 247.432 318.495 247.432 318.175C247.432 317.752 247.282 317.404 246.984 317.131C246.689 316.858 246.251 316.721 245.668 316.721H243.671V319.73ZM255.054 326H252.945L256.785 315.091H259.225L263.071 326H260.961L258.048 317.328H257.962L255.054 326ZM255.123 321.723H260.876V323.31H255.123V321.723ZM266.608 326V315.091H268.584V324.343H273.389V326H266.608Z" fill="#6B7280"/>
</svg>
