<svg width="400" height="442" viewBox="0 0 400 442" fill="none" xmlns="http://www.w3.org/2000/svg">
<rect width="400" height="442" rx="28" fill="#F4F6FB"/>
<rect x="80" y="80" width="240" height="240" rx="56" fill="#16308C"/>
<path d="M200 128.125C171.406 128.125 148.438 151.406 148.438 180C148.438 217.188 200 271.875 200 271.875C200 271.875 251.562 217.188 251.562 180C251.562 151.406 228.594 128.125 200 128.125Z" fill="white"/>
<path d="M187.382 160.347V194.438H179.143V160.347H187.382ZM220.006 160.347V194.438H213.015L199.449 174.762H199.232V194.438H190.993V160.347H198.084L211.5 179.989H211.783V160.347H220.006Z" fill="#16308C"/>
<path d="M158.977 358H156.868L160.708 347.091H163.148L166.994 358H164.884L161.971 349.328H161.885L158.977 358ZM159.046 353.723H164.799V355.31H159.046V353.723ZM170.53 358V347.091H174.621C175.459 347.091 176.163 347.247 176.731 347.56C177.303 347.872 177.734 348.302 178.025 348.849C178.32 349.392 178.467 350.01 178.467 350.702C178.467 351.402 178.32 352.023 178.025 352.567C177.73 353.11 177.295 353.538 176.72 353.85C176.145 354.159 175.436 354.314 174.595 354.314H171.883V352.689H174.328C174.818 352.689 175.22 352.604 175.532 352.434C175.845 352.263 176.076 352.029 176.225 351.73C176.377 351.432 176.454 351.089 176.454 350.702C176.454 350.315 176.377 349.974 176.225 349.68C176.076 349.385 175.843 349.156 175.527 348.993C175.214 348.826 174.811 348.742 174.318 348.742H172.507V358H170.53ZM182.284 358V347.091H186.375C187.213 347.091 187.916 347.247 188.484 347.56C189.056 347.872 189.487 348.302 189.778 348.849C190.073 349.392 190.221 350.01 190.221 350.702C190.221 351.402 190.073 352.023 189.778 352.567C189.484 353.11 189.049 353.538 188.473 353.85C187.898 354.159 187.19 354.314 186.348 354.314H183.637V352.689H186.082C186.572 352.689 186.973 352.604 187.286 352.434C187.598 352.263 187.829 352.029 187.978 351.73C188.131 351.432 188.207 351.089 188.207 350.702C188.207 350.315 188.131 349.974 187.978 349.68C187.829 349.385 187.596 349.156 187.28 348.993C186.968 348.826 186.565 348.742 186.071 348.742H184.26V358H182.284ZM201.834 347.091V358H199.858V347.091H201.834ZM215.412 350.772H213.42C213.363 350.445 213.258 350.156 213.105 349.903C212.953 349.648 212.763 349.431 212.535 349.254C212.308 349.076 212.049 348.943 211.758 348.854C211.47 348.762 211.159 348.716 210.825 348.716C210.232 348.716 209.707 348.865 209.249 349.163C208.791 349.458 208.432 349.891 208.173 350.463C207.914 351.031 207.784 351.725 207.784 352.545C207.784 353.38 207.914 354.083 208.173 354.655C208.436 355.223 208.794 355.653 209.249 355.944C209.707 356.232 210.231 356.375 210.82 356.375C211.147 356.375 211.452 356.333 211.736 356.248C212.024 356.159 212.281 356.029 212.509 355.859C212.74 355.688 212.933 355.479 213.089 355.23C213.249 354.982 213.359 354.697 213.42 354.378L215.412 354.388C215.337 354.907 215.176 355.393 214.927 355.848C214.682 356.303 214.361 356.704 213.963 357.052C213.565 357.396 213.1 357.666 212.567 357.862C212.035 358.053 211.443 358.149 210.794 358.149C209.835 358.149 208.979 357.927 208.226 357.483C207.473 357.039 206.88 356.398 206.447 355.56C206.014 354.722 205.797 353.717 205.797 352.545C205.797 351.37 206.015 350.365 206.452 349.531C206.889 348.692 207.484 348.051 208.237 347.608C208.99 347.164 209.842 346.942 210.794 346.942C211.401 346.942 211.965 347.027 212.487 347.197C213.009 347.368 213.475 347.618 213.883 347.949C214.291 348.275 214.627 348.676 214.89 349.152C215.156 349.625 215.33 350.164 215.412 350.772ZM229.069 352.545C229.069 353.721 228.849 354.728 228.409 355.566C227.972 356.4 227.375 357.039 226.619 357.483C225.866 357.927 225.012 358.149 224.057 358.149C223.102 358.149 222.246 357.927 221.489 357.483C220.737 357.036 220.14 356.395 219.7 355.56C219.263 354.722 219.045 353.717 219.045 352.545C219.045 351.37 219.263 350.365 219.7 349.531C220.14 348.692 220.737 348.051 221.489 347.608C222.246 347.164 223.102 346.942 224.057 346.942C225.012 346.942 225.866 347.164 226.619 347.608C227.375 348.051 227.972 348.692 228.409 349.531C228.849 350.365 229.069 351.37 229.069 352.545ZM227.083 352.545C227.083 351.718 226.953 351.02 226.694 350.452C226.438 349.88 226.083 349.449 225.628 349.158C225.174 348.863 224.65 348.716 224.057 348.716C223.464 348.716 222.94 348.863 222.486 349.158C222.031 349.449 221.674 349.88 221.415 350.452C221.159 351.02 221.031 351.718 221.031 352.545C221.031 353.373 221.159 354.072 221.415 354.644C221.674 355.212 222.031 355.644 222.486 355.939C222.94 356.23 223.464 356.375 224.057 356.375C224.65 356.375 225.174 356.23 225.628 355.939C226.083 355.644 226.438 355.212 226.694 354.644C226.953 354.072 227.083 353.373 227.083 352.545ZM242.003 347.091V358H240.245L235.104 350.569H235.014V358H233.038V347.091H234.806L239.941 354.527H240.037V347.091H242.003Z" fill="#6B7280"/>
</svg>
