<svg width="476" height="251" viewBox="0 0 476 251" fill="none" xmlns="http://www.w3.org/2000/svg">
<rect width="475.5" height="251" rx="28" fill="#F4F6FB"/>
<path d="M128.25 84.2917C111.856 84.2917 98.6875 97.6396 98.6875 114.033C98.6875 135.354 128.25 166.708 128.25 166.708C128.25 166.708 157.812 135.354 157.812 114.033C157.812 97.6396 144.644 84.2917 128.25 84.2917Z" fill="#16308C"/>
<circle cx="149.75" cy="96.8333" r="10.75" fill="white"/>
<circle cx="149.75" cy="96.8333" r="5.82292" fill="#14B89A"/>
<path d="M121.016 102.392V121.938H116.292V102.392H121.016ZM139.72 102.392V121.938H135.712L127.934 110.657H127.81V121.938H123.086V102.392H127.151L134.844 113.654H135.006V102.392H139.72Z" fill="white"/>
<g clip-path="url(#clip0_1_5)">
<path d="M203.518 90.3636V134H194.293V90.3636H203.518ZM218.815 115.08V134H209.739V101.273H218.389V107.047H218.773C219.497 105.143 220.712 103.638 222.416 102.53C224.121 101.408 226.187 100.847 228.616 100.847C230.889 100.847 232.871 101.344 234.561 102.338C236.251 103.332 237.565 104.753 238.503 106.599C239.44 108.432 239.909 110.619 239.909 113.162V134H230.832V114.781C230.847 112.778 230.335 111.216 229.298 110.094C228.261 108.957 226.834 108.389 225.016 108.389C223.794 108.389 222.714 108.652 221.777 109.178C220.854 109.703 220.129 110.47 219.604 111.479C219.092 112.473 218.829 113.673 218.815 115.08Z" fill="#2B59E0"/>
<path d="M246.033 134V90.3636H274.925V97.9702H255.259V108.368H273.008V115.974H255.259V134H246.033ZM279.76 134V101.273H288.837V134H279.76ZM284.32 97.054C282.971 97.054 281.813 96.6065 280.847 95.7116C279.895 94.8026 279.42 93.7159 279.42 92.4517C279.42 91.2017 279.895 90.1293 280.847 89.2344C281.813 88.3253 282.971 87.8707 284.32 87.8707C285.67 87.8707 286.82 88.3253 287.772 89.2344C288.738 90.1293 289.221 91.2017 289.221 92.4517C289.221 93.7159 288.738 94.8026 287.772 95.7116C286.82 96.6065 285.67 97.054 284.32 97.054ZM309.823 134.639C306.456 134.639 303.559 133.957 301.13 132.594C298.715 131.216 296.854 129.27 295.547 126.756C294.24 124.227 293.587 121.237 293.587 117.786C293.587 114.419 294.24 111.464 295.547 108.922C296.854 106.379 298.694 104.398 301.066 102.977C303.452 101.557 306.25 100.847 309.461 100.847C311.62 100.847 313.63 101.195 315.49 101.891C317.365 102.572 318.999 103.602 320.391 104.98C321.797 106.358 322.891 108.091 323.672 110.179C324.454 112.253 324.844 114.682 324.844 117.466V119.959H297.209V114.334H316.3C316.3 113.027 316.016 111.869 315.448 110.861C314.88 109.852 314.091 109.064 313.083 108.496C312.088 107.913 310.931 107.622 309.61 107.622C308.232 107.622 307.01 107.942 305.945 108.581C304.894 109.206 304.07 110.051 303.473 111.116C302.877 112.168 302.571 113.339 302.557 114.632V119.98C302.557 121.599 302.856 122.999 303.452 124.178C304.063 125.357 304.922 126.266 306.03 126.905C307.138 127.544 308.452 127.864 309.972 127.864C310.981 127.864 311.904 127.722 312.742 127.438C313.58 127.153 314.297 126.727 314.894 126.159C315.49 125.591 315.945 124.895 316.258 124.071L324.652 124.625C324.226 126.642 323.353 128.403 322.032 129.909C320.725 131.401 319.035 132.565 316.961 133.403C314.901 134.227 312.522 134.639 309.823 134.639ZM338.644 90.3636V134H329.567V90.3636H338.644ZM356.775 134.533C354.289 134.533 352.038 133.893 350.021 132.615C348.018 131.322 346.427 129.426 345.248 126.926C344.083 124.412 343.501 121.33 343.501 117.679C343.501 113.929 344.104 110.811 345.312 108.325C346.519 105.825 348.124 103.957 350.127 102.722C352.144 101.472 354.353 100.847 356.753 100.847C358.586 100.847 360.113 101.159 361.334 101.784C362.57 102.395 363.565 103.162 364.317 104.085C365.084 104.994 365.667 105.889 366.065 106.77H366.342V90.3636H375.397V134H366.448V128.759H366.065C365.638 129.668 365.035 130.57 364.253 131.464C363.486 132.345 362.485 133.077 361.249 133.659C360.028 134.241 358.536 134.533 356.775 134.533ZM359.651 127.31C361.114 127.31 362.35 126.912 363.359 126.116C364.381 125.307 365.163 124.178 365.702 122.729C366.256 121.28 366.533 119.582 366.533 117.636C366.533 115.69 366.263 114 365.724 112.565C365.184 111.131 364.403 110.023 363.38 109.241C362.357 108.46 361.114 108.07 359.651 108.07C358.16 108.07 356.903 108.474 355.88 109.284C354.857 110.094 354.083 111.216 353.557 112.651C353.032 114.085 352.769 115.747 352.769 117.636C352.769 119.54 353.032 121.223 353.557 122.686C354.097 124.135 354.871 125.271 355.88 126.095C356.903 126.905 358.16 127.31 359.651 127.31Z" fill="#14213D"/>
<path d="M191.576 171V160.091H195.752C196.54 160.091 197.196 160.215 197.718 160.464C198.243 160.709 198.636 161.044 198.895 161.471C199.158 161.897 199.289 162.38 199.289 162.919C199.289 163.363 199.204 163.743 199.033 164.059C198.863 164.372 198.634 164.626 198.346 164.821C198.059 165.016 197.737 165.157 197.382 165.242V165.348C197.769 165.37 198.14 165.489 198.495 165.705C198.854 165.918 199.147 166.22 199.374 166.611C199.602 167.001 199.715 167.474 199.715 168.028C199.715 168.592 199.578 169.1 199.305 169.551C199.032 169.999 198.62 170.352 198.069 170.611C197.519 170.87 196.826 171 195.992 171H191.576ZM193.552 169.349H195.678C196.395 169.349 196.912 169.212 197.228 168.939C197.547 168.662 197.707 168.306 197.707 167.873C197.707 167.55 197.627 167.259 197.467 167C197.308 166.737 197.08 166.531 196.786 166.382C196.491 166.229 196.139 166.153 195.731 166.153H193.552V169.349ZM193.552 164.73H195.507C195.848 164.73 196.155 164.668 196.429 164.544C196.702 164.416 196.917 164.237 197.073 164.006C197.233 163.772 197.313 163.495 197.313 163.175C197.313 162.752 197.164 162.404 196.865 162.131C196.571 161.858 196.132 161.721 195.55 161.721H193.552V164.73ZM202.789 160.091H205.021L207.689 164.917H207.796L210.464 160.091H212.696L208.728 166.93V171H206.757V166.93L202.789 160.091ZM223.476 160.091L226.315 168.678H226.427L229.261 160.091H231.434L227.588 171H225.149L221.308 160.091H223.476ZM238.657 171.149C237.947 171.149 237.311 171.016 236.75 170.75C236.189 170.48 235.743 170.11 235.413 169.642C235.087 169.173 234.913 168.637 234.891 168.033H236.809C236.844 168.48 237.038 168.846 237.389 169.13C237.741 169.411 238.164 169.551 238.657 169.551C239.044 169.551 239.389 169.462 239.691 169.285C239.992 169.107 240.23 168.86 240.404 168.544C240.578 168.228 240.664 167.868 240.66 167.463C240.664 167.051 240.577 166.685 240.399 166.366C240.221 166.046 239.978 165.796 239.669 165.615C239.36 165.43 239.005 165.338 238.604 165.338C238.277 165.334 237.956 165.395 237.64 165.519C237.324 165.643 237.073 165.806 236.889 166.009L235.104 165.716L235.674 160.091H242.002V161.742H237.31L236.995 164.635H237.059C237.262 164.397 237.547 164.2 237.917 164.043C238.286 163.884 238.691 163.804 239.131 163.804C239.792 163.804 240.381 163.96 240.9 164.272C241.418 164.581 241.827 165.007 242.125 165.551C242.423 166.094 242.572 166.716 242.572 167.415C242.572 168.136 242.405 168.779 242.072 169.343C241.741 169.904 241.281 170.347 240.692 170.67C240.106 170.989 239.428 171.149 238.657 171.149ZM259.692 163.575C259.603 163.287 259.481 163.029 259.325 162.802C259.172 162.571 258.987 162.374 258.771 162.211C258.558 162.048 258.313 161.925 258.036 161.843C257.759 161.758 257.457 161.716 257.13 161.716C256.544 161.716 256.022 161.863 255.564 162.158C255.106 162.452 254.746 162.886 254.483 163.457C254.223 164.026 254.094 164.718 254.094 165.535C254.094 166.359 254.223 167.056 254.483 167.628C254.742 168.2 255.102 168.635 255.564 168.933C256.026 169.228 256.562 169.375 257.173 169.375C257.727 169.375 258.206 169.269 258.611 169.056C259.019 168.843 259.334 168.541 259.554 168.15C259.774 167.756 259.884 167.294 259.884 166.765L260.331 166.835H257.37V165.29H261.796V166.6C261.796 167.534 261.597 168.342 261.2 169.024C260.802 169.706 260.255 170.231 259.559 170.6C258.863 170.966 258.064 171.149 257.162 171.149C256.157 171.149 255.275 170.924 254.515 170.473C253.758 170.018 253.167 169.374 252.741 168.539C252.318 167.701 252.107 166.707 252.107 165.556C252.107 164.675 252.231 163.889 252.48 163.196C252.732 162.504 253.084 161.916 253.535 161.433C253.986 160.947 254.515 160.577 255.122 160.325C255.729 160.07 256.39 159.942 257.103 159.942C257.707 159.942 258.27 160.031 258.792 160.208C259.314 160.382 259.777 160.631 260.182 160.954C260.591 161.277 260.926 161.661 261.189 162.104C261.452 162.548 261.624 163.038 261.706 163.575H259.692ZM265.807 171V160.091H267.783V169.343H272.588V171H265.807ZM285.726 165.545C285.726 166.721 285.506 167.728 285.066 168.566C284.629 169.4 284.033 170.039 283.276 170.483C282.523 170.927 281.669 171.149 280.714 171.149C279.759 171.149 278.903 170.927 278.147 170.483C277.394 170.036 276.797 169.395 276.357 168.56C275.92 167.722 275.702 166.717 275.702 165.545C275.702 164.37 275.92 163.365 276.357 162.531C276.797 161.692 277.394 161.051 278.147 160.608C278.903 160.164 279.759 159.942 280.714 159.942C281.669 159.942 282.523 160.164 283.276 160.608C284.033 161.051 284.629 161.692 285.066 162.531C285.506 163.365 285.726 164.37 285.726 165.545ZM283.74 165.545C283.74 164.718 283.61 164.02 283.351 163.452C283.095 162.88 282.74 162.449 282.285 162.158C281.831 161.863 281.307 161.716 280.714 161.716C280.121 161.716 279.597 161.863 279.143 162.158C278.688 162.449 278.331 162.88 278.072 163.452C277.816 164.02 277.688 164.718 277.688 165.545C277.688 166.373 277.816 167.072 278.072 167.644C278.331 168.212 278.688 168.644 279.143 168.939C279.597 169.23 280.121 169.375 280.714 169.375C281.307 169.375 281.831 169.23 282.285 168.939C282.74 168.644 283.095 168.212 283.351 167.644C283.61 167.072 283.74 166.373 283.74 165.545ZM289.695 171V160.091H293.871C294.659 160.091 295.314 160.215 295.836 160.464C296.362 160.709 296.754 161.044 297.014 161.471C297.276 161.897 297.408 162.38 297.408 162.919C297.408 163.363 297.323 163.743 297.152 164.059C296.982 164.372 296.753 164.626 296.465 164.821C296.177 165.016 295.856 165.157 295.501 165.242V165.348C295.888 165.37 296.259 165.489 296.614 165.705C296.973 165.918 297.266 166.22 297.493 166.611C297.72 167.001 297.834 167.474 297.834 168.028C297.834 168.592 297.697 169.1 297.424 169.551C297.15 169.999 296.738 170.352 296.188 170.611C295.638 170.87 294.945 171 294.111 171H289.695ZM291.671 169.349H293.796C294.514 169.349 295.03 169.212 295.346 168.939C295.666 168.662 295.826 168.306 295.826 167.873C295.826 167.55 295.746 167.259 295.586 167C295.426 166.737 295.199 166.531 294.904 166.382C294.61 166.229 294.258 166.153 293.85 166.153H291.671V169.349ZM291.671 164.73H293.626C293.967 164.73 294.274 164.668 294.547 164.544C294.821 164.416 295.036 164.237 295.192 164.006C295.352 163.772 295.432 163.495 295.432 163.175C295.432 162.752 295.282 162.404 294.984 162.131C294.689 161.858 294.251 161.721 293.668 161.721H291.671V164.73ZM303.054 171H300.945L304.785 160.091H307.225L311.071 171H308.961L306.048 162.328H305.962L303.054 171ZM303.123 166.723H308.876V168.31H303.123V166.723ZM314.608 171V160.091H316.584V169.343H321.389V171H314.608Z" fill="#6B7280"/>
</g>
<defs>
<clipPath id="clip0_1_5">
<rect width="189" height="99" fill="white" transform="translate(190.5 76)"/>
</clipPath>
</defs>
</svg>
